<svg width="100" height="100" viewBox="0 0 100 100" fill="none" xmlns="http://www.w3.org/2000/svg">
<g clip-path="url(#clip0_116_10)">
<path d="M100 0H0V100H100V0Z" fill="#252422"/>
<path d="M44.4 77.63C40.6667 77.63 37.8667 76.58 36 74.48C34.1333 72.38 33.2 69.6733 33.2 66.36V32.41C33.2 30.6367 33.83 29.3533 35.09 28.56C36.3967 27.7667 38.38 27.37 41.04 27.37V66.08C41.04 67.76 41.39 68.9733 42.09 69.72C42.8367 70.42 44.0267 70.77 45.66 70.77C47.48 70.77 49.1367 70.3267 50.63 69.44C51.05 69.8133 51.3767 70.3033 51.61 70.91C51.8433 71.47 51.96 72.03 51.96 72.59C51.96 73.8967 51.2833 75.0633 49.93 76.09C48.6233 77.1167 46.78 77.63 44.4 77.63ZM63.8879 37.38C62.3479 37.38 61.0646 36.9133 60.0379 35.98C59.0112 35 58.4979 33.7867 58.4979 32.34C58.4979 30.8933 59.0112 29.7033 60.0379 28.77C61.0646 27.8367 62.3479 27.37 63.8879 27.37C65.4279 27.37 66.7112 27.8367 67.7379 28.77C68.7646 29.7033 69.2779 30.8933 69.2779 32.34C69.2779 33.7867 68.7646 35 67.7379 35.98C66.7112 36.9133 65.4279 37.38 63.8879 37.38ZM59.9679 46.41C59.9679 44.6367 60.6212 43.3533 61.9279 42.56C63.2346 41.7667 65.1946 41.37 67.8079 41.37V72.59C67.8079 74.3633 67.1546 75.6467 65.8479 76.44C64.5412 77.2333 62.5812 77.63 59.9679 77.63V46.41Z" fill="#FFFDF1"/>
<circle cx="64" cy="33" r="6" fill="#EB5E28"/>
</g>
<defs>
<clipPath id="clip0_116_10">
<rect width="100" height="100" fill="white"/>
</clipPath>
</defs>
</svg>
